<?xml version="1.0" standalone="no"?><!DOCTYPE svg PUBLIC "-//W3C//DTD SVG 1.1//EN" "http://www.w3.org/Graphics/SVG/1.1/DTD/svg11.dtd"><svg t="1672735691579" class="icon" viewBox="0 0 1024 1024" version="1.1" xmlns="http://www.w3.org/2000/svg" p-id="5473" xmlns:xlink="http://www.w3.org/1999/xlink" width="200" height="200"><path d="M693.806131 41.276139l53.761552 54.46894-159.387566 158.937409a32.154038 32.154038 0 0 0 0 45.46581l136.236658 136.590353a32.154038 32.154038 0 0 0 45.46581 0l159.355412-158.937409 53.954476 52.861238s122.539039 179.869688-54.661865 356.459665a289.386341 289.386341 0 0 1-359.867992 39.002848 56.848339 56.848339 0 0 1-3.987101 5.980651l-273.309322 272.505471a64.308076 64.308076 0 0 1-90.963774 0L18.764259 822.490644a64.308076 64.308076 0 0 1 0-90.963773l273.309322-272.473318a66.623167 66.623167 0 0 1 5.980651-3.9871 289.386341 289.386341 0 0 1 39.96747-359.739377c177.329519-176.718593 355.78443-54.050938 355.784429-54.050937z m-310.093542 99.452439a225.078266 225.078266 0 0 0-0.418002 318.324975l-295.817149 295.174069a32.154038 32.154038 0 0 0 0 45.465809l136.236659 136.590354a32.154038 32.154038 0 0 0 45.465809 0l295.97792-295.174069a224.467339 224.467339 0 0 0 356.716896-264.981426l-129.194924 128.84123a64.308076 64.308076 0 0 1-90.931619 0l-181.670315-182.120471a64.308076 64.308076 0 0 1 0-90.963774l129.194925-128.84123a224.306569 224.306569 0 0 0-265.5602 37.684533z" fill="#6EA3E5" p-id="5474"></path></svg>